# xmcd
#
# Track frame offsets:
#	150
#	15289
#	30248
#	45062
#	59282
#	74735
#	89201
#	104249
#	118189
#	131521
#	145212
#	157373
#	170875
#	183823
#	196432
#	208743
#	221572
#	236263
#	250691
#	263213
#	275811
#
# Disc length: 3867 seconds
#
# Revision: 1
# Processed by: cddbd v1.4PL0 Copyright (c) Steve Scherf et al.
# Submitted via: CDmax 2.0
#
DISCID=420f1915
DTITLE=Big Joe Williams - Meet Me Around The Corner
DYEAR=2001
DGENRE=Blues
TTITLE0=49 Highway Blues
TTITLE1=Little Leg Woman
TTITLE2=Providence Help The Poor People
TTITLE3=Stepfather Blues
TTITLE4=Baby Please Don't Go
TTITLE5=Stack O' Dollars
TTITLE6=Wild Cow Blues
TTITLE7=I Know You Gonna Miss Me
TTITLE8=Brother James
TTITLE9=Rootin' Ground Hog
TTITLE10=I Won't Be In Hard Luck No More
TTITLE11=Meet Me Around The Corner
TTITLE12=Crawlin' King Snake
TTITLE13=I'm Getting Wild About Her
TTITLE14=Peach Orchard Mama
TTITLE15=Please Don't Go
TTITLE16=Break 'em On Down
TTITLE17=Someday Baby
TTITLE18=His Spirit Lives On
TTITLE19=Vitamin A
TTITLE20=Somebody's Been Worryin'
EXTD=1-4: \nJoe Williams - guitar/vocals\nChicago, February 25, 1935\n\n5-7
EXTD=: \nJoe Williams - guitar/vocals - prob. Old Tracy  - One-string-fiddle
EXTD=prob. Chasey Collins - washboard\nChicago, October 31, 1935\n\n8-11: \
EXTD=nJoe Williams - guitar/vocals - Robert Lee McCoy - guitar - John Lee "Sonn
EXTD=y Boy" Williamson - harmonica\nAurora, May 05, 1937\n\n12-15:\nJoe Willi
EXTD=ams - guitar/vocals - William Mitchell - imitation bass \nChicago, Marc
EXTD=h 27, 1941\n\n16-18:\nJoe Williams - guitar/vocals - John Lee "Sonny Boy
EXTD=" Williamson - harmonica - Alfred Elkins - imitation bass \nChicago, Dece
EXTD=mber 12, 1941\n\n19:\nJoe Williams - guitar/vocals - Clifford Dinwiddl
EXTD=e - washboard\nChicago,  1945\n\n20-21\nJoe Williams - guitar/vocals - Jo
EXTD=hn Lee "Sonny Boy" Williamson - harmonica - Armand "Jump" Jackson - drums
EXTD=\nChicago, July 12, 1945
EXTT0=by J. L. Williams
EXTT1=by J. L. Williams
EXTT2=by J. L. Williams
EXTT3=by J. L. Williams
EXTT4=by J. L. Williams
EXTT5=by J. L. Williams
EXTT6=by J. L. Williams
EXTT7=by J. L. Williams
EXTT8=by J. L. Williams
EXTT9=by J. L. Williams
EXTT10=by J. L. Williams
EXTT11=by J. L. Williams
EXTT12=by J. L. Williams
EXTT13=by J. L. Williams
EXTT14=by J. L. Williams
EXTT15=by J. L. Williams
EXTT16=by J. L. Williams
EXTT17=by J. L. Williams
EXTT18=by J. L. Williams
EXTT19=by J. L. Williams
EXTT20=by J. L. Williams
PLAYORDER=
